<mxfile host="app.diagrams.net" agent="Mozilla/5.0 (Windows NT 10.0; Win64; x64) AppleWebKit/537.36 (KHTML, like Gecko) Chrome/138.0.0.0 Safari/537.36 Edg/138.0.0.0" version="28.0.7">
  <diagram name="第 1 页" id="4VUJwz9B8bYhUzNE-3aw">
    <mxGraphModel dx="1213" dy="673" grid="1" gridSize="10" guides="1" tooltips="1" connect="1" arrows="1" fold="1" page="1" pageScale="1" pageWidth="827" pageHeight="1169" math="0" shadow="0">
      <root>
        <mxCell id="0" />
        <mxCell id="1" parent="0" />
        <mxCell id="FZFPmuW_bYs7ONxWmxmd-1" value="&lt;font style=&quot;font-size: 18px;&quot; face=&quot;SimSun&quot;&gt;卷积层1&lt;/font&gt;" style="rounded=0;whiteSpace=wrap;html=1;textDirection=vertical-lr;" parent="1" vertex="1">
          <mxGeometry x="170" y="200" width="60" height="160" as="geometry" />
        </mxCell>
        <mxCell id="FZFPmuW_bYs7ONxWmxmd-2" value="&lt;font face=&quot;SimSun&quot;&gt;&lt;span style=&quot;font-size: 18px;&quot;&gt;最大池化层1&lt;/span&gt;&lt;/font&gt;" style="rounded=0;whiteSpace=wrap;html=1;textDirection=vertical-lr;" parent="1" vertex="1">
          <mxGeometry x="230" y="200" width="60" height="160" as="geometry" />
        </mxCell>
        <mxCell id="FZFPmuW_bYs7ONxWmxmd-3" value="&lt;font style=&quot;font-size: 18px;&quot; face=&quot;SimSun&quot;&gt;卷积层2&lt;/font&gt;" style="rounded=0;whiteSpace=wrap;html=1;textDirection=vertical-lr;" parent="1" vertex="1">
          <mxGeometry x="290" y="200" width="60" height="160" as="geometry" />
        </mxCell>
        <mxCell id="FZFPmuW_bYs7ONxWmxmd-4" value="&lt;font face=&quot;SimSun&quot;&gt;&lt;span style=&quot;font-size: 18px;&quot;&gt;最大池化层2&lt;/span&gt;&lt;/font&gt;" style="rounded=0;whiteSpace=wrap;html=1;textDirection=vertical-lr;" parent="1" vertex="1">
          <mxGeometry x="350" y="200" width="60" height="160" as="geometry" />
        </mxCell>
        <mxCell id="FZFPmuW_bYs7ONxWmxmd-21" value="" style="shape=flexArrow;endArrow=classic;html=1;rounded=0;" parent="1" edge="1">
          <mxGeometry width="50" height="50" relative="1" as="geometry">
            <mxPoint x="100" y="280" as="sourcePoint" />
            <mxPoint x="150" y="279.5" as="targetPoint" />
          </mxGeometry>
        </mxCell>
        <mxCell id="FZFPmuW_bYs7ONxWmxmd-22" value="&lt;font face=&quot;SimSun&quot; style=&quot;font-size: 18px;&quot;&gt;输入&lt;/font&gt;" style="text;html=1;align=center;verticalAlign=middle;resizable=0;points=[];autosize=1;strokeColor=none;fillColor=none;" parent="1" vertex="1">
          <mxGeometry x="50" y="260" width="60" height="40" as="geometry" />
        </mxCell>
        <mxCell id="FZFPmuW_bYs7ONxWmxmd-25" value="" style="shape=flexArrow;endArrow=classic;html=1;rounded=0;" parent="1" edge="1">
          <mxGeometry width="50" height="50" relative="1" as="geometry">
            <mxPoint x="440" y="280" as="sourcePoint" />
            <mxPoint x="490" y="279.5" as="targetPoint" />
          </mxGeometry>
        </mxCell>
        <mxCell id="FZFPmuW_bYs7ONxWmxmd-26" value="&lt;font face=&quot;SimSun&quot; style=&quot;font-size: 18px;&quot;&gt;输出&lt;/font&gt;" style="text;html=1;align=center;verticalAlign=middle;resizable=0;points=[];autosize=1;strokeColor=none;fillColor=none;" parent="1" vertex="1">
          <mxGeometry x="490" y="260" width="60" height="40" as="geometry" />
        </mxCell>
      </root>
    </mxGraphModel>
  </diagram>
</mxfile>
